# xmcd
#
# Track frame offsets: 
#        150
#        9997
#        22262
#        36065
#        48117
#
# Disc length: 864 seconds
#
# Revision: 0
# Processed by: cddbd v1.5.2PL0 Copyright (c) Steve Scherf et al.
# Submitted via: ExactAudioCopyFreeDBPlugin 1.0
#
DISCID=31035e05
DTITLE=Baron, John - John Baron meets Bill (Memphis Session)
DYEAR=1996
DGENRE=Blues
TTITLE0=Train
TTITLE1=We were dreaming
TTITLE2=Bring back the good old days
TTITLE3=Don't cry daddy
TTITLE4=Blue moon
EXTD=
EXTT0=
EXTT1=
EXTT2=
EXTT3=
EXTT4=
PLAYORDER=
